<?xml version="1.0" encoding="UTF-8"?>
<!DOCTYPE svg PUBLIC "-//W3C//DTD SVG 1.1//EN" "http://www.w3.org/Graphics/SVG/1.1/DTD/svg11.dtd">
<!-- Creator: CorelDRAW 2021 (64-Bit) -->
<svg xmlns="http://www.w3.org/2000/svg" xml:space="preserve" width="3.648mm" height="5.2672mm" version="1.1" style="shape-rendering:geometricPrecision; text-rendering:geometricPrecision; image-rendering:optimizeQuality; fill-rule:evenodd; clip-rule:evenodd"
viewBox="0 0 36.36 52.5"
 xmlns:xlink="http://www.w3.org/1999/xlink"
 xmlns:xodm="http://www.corel.com/coreldraw/odm/2003">
 <defs>
  <style type="text/css">
   <![CDATA[
    .fil0 {fill:#2B2A29;fill-rule:nonzero}
   ]]>
  </style>
 </defs>
 <g id="Layer_x0020_1">
  <metadata id="CorelCorpID_0Corel-Layer"/>
  <path class="fil0" d="M18.18 0c4.95,0 9.46,1.73 12.74,4.52 3.36,2.86 5.45,6.84 5.45,11.24 0,4.73 -2.66,16.62 -6.77,25.41 -3,6.42 -6.89,11.34 -11.41,11.34 -4.52,0 -8.41,-4.92 -11.41,-11.34 -4.1,-8.79 -6.77,-20.67 -6.77,-25.41 0,-4.4 2.08,-8.38 5.44,-11.24 3.28,-2.79 7.78,-4.52 12.74,-4.52zm10.29 7.4c-2.61,-2.22 -6.25,-3.6 -10.29,-3.6 -4.04,0 -7.68,1.38 -10.29,3.6 -2.53,2.15 -4.09,5.11 -4.09,8.36 0,4.38 2.52,15.5 6.39,23.8 2.42,5.18 5.24,9.14 7.99,9.14 2.74,0 5.57,-3.97 7.98,-9.14 3.88,-8.31 6.4,-19.42 6.4,-23.8 0,-3.25 -1.57,-6.21 -4.09,-8.36zm-10.29 2.72c2.68,0 5.14,0.95 6.93,2.47 1.88,1.59 3.04,3.82 3.04,6.3 0,2.47 -1.16,4.7 -3.04,6.29 -1.79,1.53 -4.25,2.48 -6.94,2.48 -2.69,0 -5.14,-0.94 -6.93,-2.47l-0.12 -0.11c-1.81,-1.59 -2.92,-3.78 -2.92,-6.2 0,-2.47 1.16,-4.7 3.04,-6.3 1.79,-1.53 4.25,-2.47 6.93,-2.47zm4.48 5.36c-1.12,-0.96 -2.71,-1.55 -4.48,-1.55 -1.77,0 -3.36,0.6 -4.48,1.55 -1.04,0.89 -1.69,2.1 -1.69,3.42 0,1.28 0.61,2.46 1.6,3.34l0.09 0.07c1.13,0.96 2.72,1.56 4.49,1.56 1.77,0 3.35,-0.59 4.48,-1.55 1.05,-0.89 1.7,-2.1 1.7,-3.42 0,-1.32 -0.65,-2.53 -1.69,-3.42z"/>
 </g>
</svg>
